#!OML:ASF I:\Actors\actors\Patient Classification 2\Patient 1\Session 1\actor1.ASF
:FULLY-SPECIFIED
:DEGREES
1144
root -0.957201 18.8068 5.5279 8.17804 -0.966065 -7.33188
lowerback 21.6066 0.397122 -0.476611
upperback 8.22189 0.44803 0.919059
thorax -3.13276 0.189073 1.14758
lowerneck 8.08698 -13.45 -14.8057
upperneck 29.7962 -19.9121 6.0485
head 10.5103 -10.3481 2.99558
rclavicle 7.55382e-015 -9.54166e-015
rhumerus -4.92399 43.0868 -72.0203
rradius 58.9427
rwrist 0.490009
rhand 0.448689 -396.646
rfingers 7.12502
rthumb 26.0201 -424.884
lclavicle 7.55382e-015 -9.54166e-015
lhumerus -38.4241 -0.951577 82.2574
lradius 63.4695
lwrist 11.049
lhand -8.02464 -19.1519
lfingers 7.12502
lthumb 17.8851 10.0457
rfemur -1.19516 1.96499 22.6217
rtibia -7.95139e-015
rfoot -14.69 -13.7096
rtoes -8.22602
lfemur -16.5086 -0.864592 -5.02325
ltibia 27.9028
lfoot -19.9856 10.4837
ltoes -56.6749
1145
root -0.947889 18.8017 5.55941 7.7306 -0.990364 -7.33641
lowerback 21.067 0.333287 -0.169731
upperback 7.89524 0.43397 1.01405
thorax -3.21126 0.187842 1.07769
lowerneck 7.89768 -13.2451 -14.66
upperneck 29.3223 -19.7272 6.48854
head 10.3613 -10.2196 3.14727
rclavicle -1.07344e-014 5.56597e-015
rhumerus -5.93001 41.5355 -72.432
rradius 58.9204
rwrist 0.845583
rhand 0.255512 -396.87
rfingers 7.12502
rthumb 25.8351 -425.135
lclavicle -1.07344e-014 5.56597e-015
lhumerus -38.5596 -1.04411 82.2091
lradius 63.2143
lwrist 11.1796
lhand -7.73073 -19.3794
lfingers 7.12502
lthumb 18.1679 9.79211
rfemur -0.577175 1.96703 22.6166
rtibia -2.3059e-014
rfoot -14.7895 -13.6453
rtoes -8.59682
lfemur -15.833 -0.961309 -5.07524
ltibia 27.7794
lfoot -20.1081 10.4515
ltoes -56.7222
1146
root -0.938534 18.7965 5.59301 7.28931 -1.07221 -7.34129
lowerback 20.5106 0.301692 0.0778783
upperback 7.53395 0.448156 1.12016
thorax -3.31666 0.198917 1.04673
lowerneck 7.62286 -13.0533 -14.4723
upperneck 29.0807 -19.5056 6.6995
head 10.2834 -10.0828 3.207
rclavicle -2.3059e-014 -3.97569e-015
rhumerus -7.0528 40.1277 -72.8513
rradius 58.8518
rwrist 1.70895
rhand -0.129936 -396.996
rfingers 7.12502
rthumb 25.4659 -425.314
lclavicle -2.3059e-014 -3.97569e-015
lhumerus -38.7461 -1.15908 82.1916
lradius 62.9479
lwrist 11.1775
lhand -7.50993 -19.4781
lfingers 7.12502
lthumb 18.3803 9.6735
rfemur 0.0430322 2.02594 22.5946
rtibia -9.54166e-015
rfoot -14.946 -13.5366
rtoes -8.66348
lfemur -15.1778 -1.07794 -5.13652
ltibia 27.7509
lfoot -20.3228 10.4431
ltoes -56.6962
1147
root -0.922098 18.7882 5.62576 6.7379 -1.12738 -7.63985
lowerback 20.1264 0.219223 0.738992
upperback 7.18825 0.475366 1.26717
thorax -3.48775 0.218919 0.821108
lowerneck 7.32362 -12.8625 -14.2965
upperneck 28.8636 -19.2929 6.94846
head 10.2262 -9.94726 3.27758
rclavicle 1.19271e-015 1.19271e-014
rhumerus -8.13142 38.8229 -73.1976
rradius 58.7015
rwrist 2.75201
rhand -0.880001 -396.722
rfingers 7.12502
rthumb 24.7472 -425.141
lclavicle 1.19271e-015 1.19271e-014
lhumerus -38.9259 -1.31651 82.177
lradius 62.698
lwrist 11.1759
lhand -7.25685 -19.4337
lfingers 7.12502
lthumb 18.6238 9.69478
rfemur 0.792367 2.08859 22.8805
rtibia 0
rfoot -15.1303 -13.4204
rtoes -8.78739
lfemur -14.3365 -1.13992 -4.88831
ltibia 27.6241
lfoot -20.499 10.3462
ltoes -56.6118
1148
root -0.89194 18.7747 5.65243 6.02257 -1.04123 -8.42232
lowerback 19.9813 -0.0297031 2.14166
upperback 6.90325 0.430963 1.47704
thorax -3.70702 0.205757 0.257532
lowerneck 6.92212 -12.6657 -14.0696
upperneck 28.6509 -19.0535 7.17185
head 10.1766 -9.79259 3.32754
rclavicle 7.15625e-015 2.70347e-014
rhumerus -9.10808 37.5211 -73.4639
rradius 58.6606
rwrist 3.2926
rhand -1.25135 -396.633
rfingers 7.12502
rthumb 24.3913 -425.101
lclavicle 7.15625e-015 2.70347e-014
lhumerus -39.0623 -1.47181 82.2028
lradius 62.6818
lwrist 10.9517
lhand -7.2745 -18.3658
lfingers 7.12502
lthumb 18.6068 10.7643
rfemur 1.71719 2.04729 23.683
rtibia 6.36111e-015
rfoot -15.2716 -13.3524
rtoes -9.20743
lfemur -13.3425 -1.06829 -4.12014
ltibia 27.4811
lfoot -20.5626 10.0257
ltoes -56.5682
1149
root -0.905213 18.7778 5.69548 5.8351 -1.26972 -7.59131
lowerback 18.993 0.165729 1.18441
upperback 6.58007 0.487675 1.4042
thorax -3.55112 0.229012 0.711714
lowerneck 6.48359 -12.5026 -13.8506
upperneck 28.3983 -18.8747 7.4812
head 10.1369 -9.65866 3.39801
rclavicle -9.14409e-015 3.18055e-015
rhumerus -10.087 36.0813 -73.721
rradius 58.6963
rwrist 3.60974
rhand -1.06166 -396.718
rfingers 7.12502
rthumb 24.5731 -425.161
lclavicle -9.14409e-015 3.18055e-015
lhumerus -39.0648 -1.42555 82.0507
lradius 62.0918
lwrist 10.4934
lhand -7.02739 -19.6195
lfingers 7.12502
lthumb 18.8445 9.48769
rfemur 2.04467 2.17696 22.8002
rtibia -4.77083e-015
rfoot -15.4298 -13.2686
rtoes -9.16908
lfemur -12.8568 -1.1572 -5.05802
ltibia 27.2791
lfoot -20.7107 10.1277
ltoes -56.4807
1150
root -0.903106 18.7743 5.73564 5.46113 -1.45875 -7.30295
lowerback 18.2678 0.259576 1.09954
upperback 6.2952 0.584236 1.35356
thorax -3.47817 0.2774 0.686899
lowerneck 6.10012 -12.3706 -13.5824
upperneck 28.0757 -18.7655 7.89894
head 10.0764 -9.54649 3.4952
rclavicle -1.05356e-014 4.77083e-015
rhumerus -11.0864 34.4941 -74.026
rradius 58.7062
rwrist 3.95495
rhand -0.775865 -396.776
rfingers 7.12502
rthumb 24.847 -425.181
lclavicle -1.05356e-014 4.77083e-015
lhumerus -39.0549 -1.57572 81.8863
lradius 61.6174
lwrist 9.89021
lhand -6.96145 -20.3643
lfingers 7.12502
lthumb 18.9079 8.73671
rfemur 2.59058 2.31821 22.4748
rtibia -7.95139e-015
rfoot -15.6125 -13.1764
rtoes -9.20783
lfemur -12.1453 -1.26681 -5.43188
ltibia 27.0722
lfoot -20.9045 10.2186
ltoes -56.4672
1151
root -0.894011 18.768 5.77395 5.02619 -1.59736 -7.30068
lowerback 17.6878 0.291329 1.46964
upperback 6.01198 0.680642 1.30884
thorax -3.47083 0.327776 0.411676
lowerneck 5.74518 -12.2209 -13.1562
upperneck 27.7448 -18.6155 8.2479
head 9.97856 -9.40707 3.55356
rclavicle 3.77691e-015 2.3059e-014
rhumerus -12.0995 32.8386 -74.3738
rradius 58.7329
rwrist 4.19005
rhand -0.658999 -396.717
rfingers 7.12502
rthumb 24.959 -425.107
lclavicle 3.77691e-015 2.3059e-014
lhumerus -39.0379 -1.80818 81.7024
lradius 61.0727
lwrist 9.53744
lhand -6.99083 -21.4382
lfingers 7.12502
lthumb 18.8796 7.66558
rfemur 3.2105 2.43623 22.4465
rtibia 7.95139e-015
rfoot -15.7968 -13.0454
rtoes -8.94336
lfemur -11.3218 -1.44966 -5.50788
ltibia 26.7763
lfoot -21.1175 10.3885
ltoes -56.4718
1152
root -0.8863 18.7612 5.81315 4.63522 -1.71559 -7.32479
lowerback 17.074 0.316491 1.84928
upperback 5.70348 0.76698 1.27767
thorax -3.46874 0.372261 0.149129
lowerneck 5.4036 -12.0448 -12.78
upperneck 27.443 -18.4334 8.6034
head 9.89283 -9.2573 3.62491
rclavicle -1.41137e-014 -5.96354e-015
rhumerus -13.1737 31.1256 -74.7606
rradius 58.7655
rwrist 4.44977
rhand -0.561775 -396.516
rfingers 7.12502
rthumb 25.0522 -424.893
lclavicle -1.41137e-014 -5.96354e-015
lhumerus -39.0618 -2.0753 81.5955
lradius 60.6338
lwrist 9.35916
lhand -7.10133 -21.9192
lfingers 7.12502
lthumb 18.7734 7.1949
rfemur 3.7854 2.53879 22.4588
rtibia 1.59028e-015
rfoot -15.9638 -12.9377
rtoes -8.84999
lfemur -10.605 -1.7028 -5.55195
ltibia 26.5903
lfoot -21.394 10.5823
ltoes -56.4209
1153
root -0.878694 18.7542 5.85315 4.26704 -1.8868 -7.37306
lowerback 16.4627 0.344365 2.2198
upperback 5.35097 0.852695 1.24571
thorax -3.51086 0.414828 -0.107617
lowerneck 5.13988 -11.8571 -12.454
upperneck 27.1191 -18.2296 8.92255
head 9.78548 -9.10855 3.6982
rclavicle 1.70955e-014 1.31198e-014
rhumerus -14.3918 29.376 -75.2672
rradius 58.8406
rwrist 4.85417
rhand -0.300022 -396.312
rfingers 7.12502
rthumb 25.303 -424.654
lclavicle 1.70955e-014 1.31198e-014
lhumerus -39.1629 -2.27271 81.506
lradius 60.2995
lwrist 9.49825
lhand -7.09286 -21.9514
lfingers 7.12502
lthumb 18.7815 7.16186
rfemur 4.33035 2.69694 22.5016
rtibia 3.18055e-015
rfoot -16.0777 -12.9012
rtoes -9.29423
lfemur -9.92052 -1.8333 -5.57021
ltibia 26.4504
lfoot -21.6226 10.6846
ltoes -56.3467
1154
root -0.86947 18.747 5.89252 3.87537 -2.04398 -7.36551
lowerback 15.9348 0.352898 2.55244
upperback 4.98002 0.905405 1.17556
thorax -3.61405 0.439229 -0.376493
lowerneck 4.88101 -11.6682 -11.99
upperneck 26.7744 -17.989 9.10147
head 9.63783 -8.9414 3.70707
rclavicle -2.38542e-015 1.07344e-014
rhumerus -15.7127 27.666 -75.8051
rradius 59.0681
rwrist 5.17507
rhand 0.0397811 -396.155
rfingers 7.12502
rthumb 25.6285 -424.45
lclavicle -2.38542e-015 1.07344e-014
lhumerus -39.278 -2.3938 81.4307
lradius 60.1079
lwrist 9.77706
lhand -7.08064 -21.3442
lfingers 7.12502
lthumb 18.7933 7.76794
rfemur 4.89609 2.83596 22.479
rtibia -1.43125e-014
rfoot -16.1853 -12.8614
rtoes -9.6517
lfemur -9.22812 -1.88957 -5.6571
ltibia 26.326
lfoot -21.7808 10.7392
ltoes -56.3646
1155
root -0.861102 18.7386 5.93161 3.45939 -2.14937 -7.3258
lowerback 15.4404 0.349684 2.84326
upperback 4.62355 0.935454 1.11973
thorax -3.71885 0.45111 -0.601985
lowerneck 4.59764 -11.4761 -11.609
upperneck 26.4759 -17.7536 9.31782
head 9.52675 -8.77984 3.73694
rclavicle 1.15295e-014 8.74653e-015
rhumerus -16.9667 25.9873 -76.2384
rradius 59.3099
rwrist 5.39271
rhand 0.369031 -396.073
rfingers 7.12502
rthumb 25.9438 -424.323
lclavicle 1.15295e-014 8.74653e-015
lhumerus -39.4171 -2.5085 81.3918
lradius 60.0265
lwrist 9.67443
lhand -7.06682 -20.144
lfingers 7.12502
lthumb 18.8066 8.96689
rfemur 5.48924 2.92095 22.4256
rtibia 1.27222e-014
rfoot -16.3402 -12.7805
rtoes -9.68218
lfemur -8.53692 -1.93453 -5.77274
ltibia 26.2148
lfoot -21.9152 10.7478
ltoes -56.4353
1156
root -0.855629 18.7294 5.96867 3.03887 -2.26401 -7.29976
lowerback 14.9499 0.427238 3.16477
upperback 4.27863 1.07184 1.0213
thorax -3.8062 0.514518 -0.907745
lowerneck 4.40217 -11.3563 -11.2288
upperneck 26.1795 -17.6683 9.711
head 9.43879 -8.67847 3.8151
rclavicle 1.55052e-014 1.66979e-014
rhumerus -18.1878 23.86 -76.7341
rradius 59.3938
rwrist 5.91241
rhand 0.741165 -395.936
rfingers 7.12502
rthumb 26.3001 -424.133
lclavicle 1.55052e-014 1.66979e-014
lhumerus -39.5122 -2.89241 81.3107
lradius 59.7556
lwrist 9.42235
lhand -7.00264 -19.7093
lfingers 7.12502
lthumb 18.8683 9.39555
rfemur 6.07652 3.01651 22.3969
rtibia -4.77083e-015
rfoot -16.5096 -12.7022
rtoes -9.65628
lfemur -7.85682 -1.93571 -5.86161
ltibia 26.1108
lfoot -22.0372 10.7259
ltoes -56.4794
1157
root -0.851942 18.7197 6.00433 2.60817 -2.38858 -7.25069
lowerback 14.4859 0.562481 3.5007
upperback 3.8637 1.28401 0.851959
thorax -3.97259 0.611834 -1.30873
lowerneck 4.44906 -11.2567 -10.7495
upperneck 25.8908 -17.6341 10.1252
head 9.31067 -8.60133 3.89581
rclavicle -1.72943e-014 2.38542e-015
rhumerus -19.6678 21.4074 -77.3402
rradius 59.5319
rwrist 6.50112
rhand 1.08615 -395.696
rfingers 7.12502
rthumb 26.6303 -423.843
lclavicle -1.72943e-014 2.38542e-015
lhumerus -39.8001 -3.5274 81.2101
lradius 59.4232
lwrist 9.27111
lhand -6.98364 -19.9385
lfingers 7.12502
lthumb 18.8866 9.16461
rfemur 6.67606 3.12115 22.3481
rtibia 7.95139e-015
rfoot -16.6766 -12.6105
rtoes -9.7299
lfemur -7.16996 -2.01111 -5.98038
ltibia 26.0139
lfoot -22.1917 10.772
ltoes -56.4592
1158
root -0.848945 18.7087 6.03998 2.16863 -2.50535 -7.21762
lowerback 13.9822 0.577215 3.66343
upperback 3.52209 1.31544 0.858818
thorax -4.05378 0.621758 -1.39329
lowerneck 4.42614 -10.9913 -10.5618
upperneck 25.4578 -17.3093 10.4291
head 9.12461 -8.42239 4.00943
rclavicle -1.94809e-014 1.66979e-014
rhumerus -20.9507 19.4956 -77.6735
rradius 59.82
rwrist 6.731
rhand 1.29691 -395.507
rfingers 7.12502
rthumb 26.832 -423.624
lclavicle -1.94809e-014 1.66979e-014
lhumerus -40.149 -3.50766 81.2326
lradius 59.1074
lwrist 8.98468
lhand -7.06058 -20.1569
lfingers 7.12502
lthumb 18.8126 8.95336
rfemur 7.29152 3.219 22.3229
rtibia 3.18055e-014
rfoot -16.8115 -12.5115
rtoes -9.84539
lfemur -6.46973 -2.15638 -6.07896
ltibia 25.9265
lfoot -22.4063 10.8059
ltoes -56.3468
